<svg xmlns="http://www.w3.org/2000/svg" width="1200" height="630" viewBox="0 0 1200 630">
  <defs>
    <linearGradient id="bg" x1="0" y1="0" x2="1" y2="1">
      <stop offset="0%" stop-color="#0A2540"/>
      <stop offset="100%" stop-color="#0F1B2D"/>
    </linearGradient>
    <linearGradient id="brand" x1="0" y1="0" x2="1" y2="1">
      <stop offset="0%" stop-color="#635BFF"/>
      <stop offset="100%" stop-color="#FF3B8B"/>
    </linearGradient>
    <linearGradient id="glow" x1="0.5" y1="0" x2="0.5" y2="1">
      <stop offset="0%" stop-color="#635BFF" stop-opacity="0.15"/>
      <stop offset="100%" stop-color="#FF3B8B" stop-opacity="0.05"/>
    </linearGradient>
  </defs>

  <!-- Background -->
  <rect width="1200" height="630" fill="url(#bg)"/>

  <!-- Subtle glow behind content -->
  <ellipse cx="600" cy="280" rx="500" ry="250" fill="url(#glow)"/>

  <!-- Grid lines for fintech feel -->
  <line x1="0" y1="157" x2="1200" y2="157" stroke="#1E3A5F" stroke-width="0.5" opacity="0.3"/>
  <line x1="0" y1="315" x2="1200" y2="315" stroke="#1E3A5F" stroke-width="0.5" opacity="0.3"/>
  <line x1="0" y1="472" x2="1200" y2="472" stroke="#1E3A5F" stroke-width="0.5" opacity="0.3"/>
  <line x1="300" y1="0" x2="300" y2="630" stroke="#1E3A5F" stroke-width="0.5" opacity="0.2"/>
  <line x1="600" y1="0" x2="600" y2="630" stroke="#1E3A5F" stroke-width="0.5" opacity="0.2"/>
  <line x1="900" y1="0" x2="900" y2="630" stroke="#1E3A5F" stroke-width="0.5" opacity="0.2"/>

  <!-- Logo mark -->
  <rect x="80" y="80" width="64" height="64" rx="16" fill="url(#brand)"/>
  <text x="112" y="122" font-size="28" text-anchor="middle" fill="white" font-family="system-ui, -apple-system, sans-serif" font-weight="700">FC</text>

  <!-- Brand name next to logo -->
  <text x="160" y="105" font-size="24" fill="#E0E7FF" font-family="system-ui, -apple-system, sans-serif" font-weight="600" opacity="0.9">Fintech Commons</text>
  <text x="160" y="130" font-size="14" fill="#94A3B8" font-family="system-ui, -apple-system, sans-serif" font-weight="400">fintechcommons.com</text>

  <!-- Main headline -->
  <text x="80" y="270" font-size="64" fill="white" font-family="system-ui, -apple-system, sans-serif" font-weight="700" letter-spacing="-2">Job search is broken.</text>

  <!-- Subheadline -->
  <text x="80" y="330" font-size="28" fill="#94A3B8" font-family="system-ui, -apple-system, sans-serif" font-weight="400">We're fixing it — one warm intro at a time.</text>

  <!-- Feature pills -->
  <rect x="80" y="390" width="200" height="44" rx="22" fill="#1E3A5F" opacity="0.6"/>
  <circle cx="108" cy="412" r="6" fill="#5CE1E6"/>
  <text x="124" y="418" font-size="16" fill="#E0E7FF" font-family="system-ui, -apple-system, sans-serif" font-weight="500">Vetted Roles</text>

  <rect x="300" y="390" width="200" height="44" rx="22" fill="#1E3A5F" opacity="0.6"/>
  <circle cx="328" cy="412" r="6" fill="#635BFF"/>
  <text x="344" y="418" font-size="16" fill="#E0E7FF" font-family="system-ui, -apple-system, sans-serif" font-weight="500">Warm Intros</text>

  <rect x="520" y="390" width="210" height="44" rx="22" fill="#1E3A5F" opacity="0.6"/>
  <circle cx="548" cy="412" r="6" fill="#FF3B8B"/>
  <text x="564" y="418" font-size="16" fill="#E0E7FF" font-family="system-ui, -apple-system, sans-serif" font-weight="500">No Ghost Jobs</text>

  <!-- Tagline at bottom -->
  <text x="80" y="560" font-size="20" fill="#635BFF" font-family="system-ui, -apple-system, sans-serif" font-weight="600">Real roles. Warm intros.</text>

  <!-- Bottom gradient line -->
  <rect x="0" y="620" width="1200" height="10" fill="url(#brand)"/>
</svg>
